<svg width="239" height="173" viewBox="0 0 239 173" fill="none" xmlns="http://www.w3.org/2000/svg">
<rect x="13" y="12" width="222" height="149" rx="7" stroke="url(#paint0_linear_71_765)" stroke-width="8"/>
<path d="M122.5 92L122.5 157.5" stroke="#9C01FF" stroke-width="12"/>
<path fill-rule="evenodd" clip-rule="evenodd" d="M164.769 0.5H39.2308C17.5642 0.5 0 17.9939 0 39.5737V133.351C0 154.93 17.5642 172.424 39.2308 172.424H164.769C186.436 172.424 204 154.93 204 133.351V39.5737C204 17.9939 186.436 0.5 164.769 0.5ZM39.2301 16.1279H164.769C177.768 16.1279 188.307 26.6243 188.307 39.5722V133.349C188.307 146.297 177.768 156.793 164.769 156.793H39.2301C26.2302 156.793 15.6916 146.297 15.6916 133.349V39.5722C15.6916 26.6243 26.2302 16.1279 39.2301 16.1279ZM147 79V94.6295H162.692V79H147Z" fill="url(#paint1_linear_71_765)"/>
<defs>
<linearGradient id="paint0_linear_71_765" x1="121.816" y1="-9.45833" x2="122.941" y2="239.354" gradientUnits="userSpaceOnUse">
<stop offset="0.317708" stop-color="#464646"/>
<stop offset="1" stop-color="#4B4949" stop-opacity="0"/>
</linearGradient>
<linearGradient id="paint1_linear_71_765" x1="0" y1="0.5" x2="0" y2="172.424" gradientUnits="userSpaceOnUse">
<stop offset="0.00169362" stop-color="#A300FF"/>
<stop offset="1" stop-color="#2C00FF"/>
</linearGradient>
</defs>
</svg>
