<svg width="29" height="28" viewBox="0 0 29 28" fill="none"
    xmlns="http://www.w3.org/2000/svg">
    <path
        d="M20.1875 15.5C19.9389 15.5 19.7004 15.5988 19.5246 15.7746C19.3488 15.9504 19.25 16.1889 19.25 16.4375C19.25 16.6861 19.3488 16.9246 19.5246 17.1004C19.7004 17.2762 19.9389 17.375 20.1875 17.375H23.5625C23.8111 17.375 24.0496 17.2762 24.2254 17.1004C24.4012 16.9246 24.5 16.6861 24.5 16.4375C24.5 16.1889 24.4012 15.9504 24.2254 15.7746C24.0496 15.5988 23.8111 15.5 23.5625 15.5H20.1875ZM0.5 3.5V22.8125C0.5 24.0557 0.99386 25.248 1.87294 26.1271C2.75201 27.0061 3.9443 27.5 5.1875 27.5H23.5625C24.8057 27.5 25.998 27.0061 26.8771 26.1271C27.7561 25.248 28.25 24.0557 28.25 22.8125V9.6875C28.2499 8.60696 27.8767 7.5596 27.1934 6.72255C26.5101 5.8855 25.5586 5.31013 24.5 5.09375V3.6875C24.5 2.84212 24.1642 2.03137 23.5664 1.4336C22.9686 0.835825 22.1579 0.5 21.3125 0.5H3.6875C2.87453 0.499931 2.09226 0.810496 1.50072 1.36816C0.909178 1.92583 0.553071 2.68844 0.50525 3.5H0.5ZM22.625 3.6875V5H3.6875C3.3394 5 3.00556 4.86172 2.75942 4.61558C2.51328 4.36944 2.375 4.0356 2.375 3.6875C2.375 3.3394 2.51328 3.00556 2.75942 2.75942C3.00556 2.51328 3.3394 2.375 3.6875 2.375H21.3125C22.0378 2.375 22.625 2.963 22.625 3.6875ZM2.375 6.875H23.5625C24.3084 6.875 25.0238 7.17132 25.5512 7.69876C26.0787 8.22621 26.375 8.94158 26.375 9.6875V22.8125C26.375 23.5584 26.0787 24.2738 25.5512 24.8012C25.0238 25.3287 24.3084 25.625 23.5625 25.625H5.1875C4.44158 25.625 3.72621 25.3287 3.19876 24.8012C2.67132 24.2738 2.375 23.5584 2.375 22.8125V6.875Z"
        fill="#70797B" />
</svg>